<svg data-name="icon_passclose＿24" xmlns="http://www.w3.org/2000/svg" width="24" height="24" viewBox="0 0 24 24">
    <defs>
        <clipPath id="a">
            <path data-name="矩形 506" transform="translate(392 3599)" style="fill:#fff;stroke:#707070" d="M0 0h24v24H0z"/>
        </clipPath>
        <clipPath id="b">
            <path data-name="矩形 505" style="fill:none;stroke:#006ce1" d="M0 0h21.394v18.828H0z"/>
        </clipPath>
    </defs>
    <g data-name="组 991" transform="translate(-392 -3599)" style="clip-path:url(#a)">
        <g data-name="组 990" style="clip-path:url(#b)" transform="translate(393 3602)">
            <path data-name="联合 6" d="M6468.708-2093.858a.6.6 0 0 1-.065-.846l11.2-13.086a.6.6 0 0 1 .846-.065.6.6 0 0 1 .065.845l-11.2 13.086a.593.593 0 0 1-.456.21.6.6 0 0 1-.39-.144zm2.881-.908a.6.6 0 0 1-.345-.776.6.6 0 0 1 .777-.344 8.7 8.7 0 0 0 5.057.457 9.67 9.67 0 0 0 3.809-1.841 14.321 14.321 0 0 0 3.047-3.27 16.027 16.027 0 0 0-4.3-3.8.6.6 0 0 1-.223-.819.6.6 0 0 1 .819-.223 17.591 17.591 0 0 1 4.917 4.426l.254.321-.205.353a15.079 15.079 0 0 1-3.573 3.962 10.212 10.212 0 0 1-6.291 2.275 10.4 10.4 0 0 1-3.743-.721zm-2.586-1.291a23.105 23.105 0 0 1-4.663-3.989l-.34-.369.3-.4a18.5 18.5 0 0 1 3.687-3.473 14.108 14.108 0 0 1 4.079-2.061 10.028 10.028 0 0 1 5.142-.221.6.6 0 0 1 .454.718.6.6 0 0 1-.718.454 8.817 8.817 0 0 0-4.531.2 12.917 12.917 0 0 0-3.729 1.888 18.181 18.181 0 0 0-3.107 2.834 21.27 21.27 0 0 0 4.06 3.4.6.6 0 0 1 .19.827.6.6 0 0 1-.51.281.6.6 0 0 1-.317-.089zm4.388-.579a.6.6 0 0 1-.352-.773.6.6 0 0 1 .773-.352 3.129 3.129 0 0 0 1.11.2 3.08 3.08 0 0 0 3.115-3.035 2.983 2.983 0 0 0-.412-1.51.6.6 0 0 1 .211-.822.6.6 0 0 1 .822.212 4.182 4.182 0 0 1 .578 2.121 4.28 4.28 0 0 1-4.315 4.235 4.371 4.371 0 0 1-1.53-.276zm-2.544-2.57a4.17 4.17 0 0 1-.238-1.39 4.28 4.28 0 0 1 4.315-4.235 4.387 4.387 0 0 1 .868.086.6.6 0 0 1 .469.706.6.6 0 0 1-.708.469 3.212 3.212 0 0 0-.628-.062 3.081 3.081 0 0 0-3.115 3.036 2.97 2.97 0 0 0 .169.99.6.6 0 0 1-.365.765.576.576 0 0 1-.2.036.6.6 0 0 1-.567-.402z" transform="translate(-6464 2110.271)" style="fill:#4d4d4d"/>
        </g>
    </g>
</svg>
